<svg xmlns="http://www.w3.org/2000/svg" xmlns:svg="http://www.w3.org/2000/svg" id="svg8" width="22" height="22" version="1.1" viewBox="0 0 5.821 5.821"><metadata id="metadata5"/><g id="layer1"><path id="path835" d="m 3.7041667,4.2333334 c 0,0 -1.5875,0 -1.5875,0 0,0 0,0.5291666 0,0.5291666 0,0 -1.0583333,-1.0583333 -1.0583333,-1.0583333 0,0 1.0583333,-1.0583334 1.0583333,-1.0583334 0,0 0,0.5291667 0,0.5291667 0,0 1.0583333,0 1.0583333,0 0,0 0,-2.1166667 0,-2.1166667 0,0 1.3229167,0 1.3229167,0 0,0 0,2.3812501 0,2.3812501 0,0 -0.79375,0.79375 -0.79375,0.79375 z" style="fill:#3584e4;stroke:#1f1f1f;stroke-width:.52916667;stroke-linecap:butt;stroke-linejoin:miter;stroke-opacity:1;stroke-miterlimit:4;stroke-dasharray:none;fill-opacity:1"/></g></svg>