<svg xmlns="http://www.w3.org/2000/svg" xmlns:svg="http://www.w3.org/2000/svg" id="svg8" width="22" height="22" version="1.1" viewBox="0 0 5.821 5.821"><metadata id="metadata5"/><g id="layer1"><g style="fill:#241f31" id="g1004"><path style="fill:#241f31;fill-opacity:1;stroke:none;stroke-width:.264583px;stroke-linecap:butt;stroke-linejoin:miter;stroke-opacity:1" id="path835" d="m 0,0 c 0,0 1.0583333,0 1.0583333,0 0,0 0,0.52916667 0,0.52916667 0,0 -0.52916663,0 -0.52916663,0 0,0 0,0.52916663 0,0.52916663 0,0 -0.52916667,0 -0.52916667,0 C 0,1.0583333 0,0 0,0 Z"/><path id="path835-3" d="m 5.8208334,-3.3333333e-8 c 0,0 0,1.058333333333333 0,1.058333333333333 0,0 -0.5291667,0 -0.5291667,0 0,0 0,-0.52916663 0,-0.52916663 0,0 -0.5291666,0 -0.5291666,0 0,0 0,-0.529166703333333 0,-0.529166703333333 0,0 1.0583333,0 1.0583333,0 z" style="fill:#241f31;fill-opacity:1;stroke:none;stroke-width:.264583px;stroke-linecap:butt;stroke-linejoin:miter;stroke-opacity:1"/><path id="path835-6" d="m 5.8208333,5.8208334 c 0,0 -1.0583333,0 -1.0583333,0 0,0 0,-0.5291667 0,-0.5291667 0,0 0.5291667,0 0.5291667,0 0,0 0,-0.5291666 0,-0.5291666 0,0 0.5291666,0 0.5291666,0 0,0 0,1.0583333 0,1.0583333 z" style="fill:#241f31;fill-opacity:1;stroke:none;stroke-width:.264583px;stroke-linecap:butt;stroke-linejoin:miter;stroke-opacity:1"/><path id="path835-7" d="m -3.3333333e-8,5.8208334 c 0,0 0,-1.0583333 0,-1.0583333 0,0 0.529166703333333,0 0.529166703333333,0 0,0 0,0.5291666 0,0.5291666 0,0 0.52916663,0 0.52916663,0 0,0 0,0.5291667 0,0.5291667 0,0 -1.058333333333333,0 -1.058333333333333,0 z" style="fill:#241f31;fill-opacity:1;stroke:none;stroke-width:.264583px;stroke-linecap:butt;stroke-linejoin:miter;stroke-opacity:1"/><rect style="fill:#241f31;fill-opacity:1;stroke:none;stroke-width:.529167;stroke-linecap:square;stroke-linejoin:round;paint-order:fill markers stroke" id="rect886" width="1.058" height=".529" x="1.587" y="0"/><rect id="rect886-5" width="1.058" height=".529" x="3.175" y="0" style="fill:#241f31;fill-opacity:1;stroke:none;stroke-width:.529167;stroke-linecap:square;stroke-linejoin:round;paint-order:fill markers stroke"/><rect id="rect886-3" width="1.058" height=".529" x="1.587" y="5.292" style="fill:#241f31;fill-opacity:1;stroke:none;stroke-width:.529167;stroke-linecap:square;stroke-linejoin:round;paint-order:fill markers stroke"/><rect style="fill:#241f31;fill-opacity:1;stroke:none;stroke-width:.529167;stroke-linecap:square;stroke-linejoin:round;paint-order:fill markers stroke" id="rect886-5-5" width="1.058" height=".529" x="3.175" y="5.292"/><rect id="rect886-6" width="1.058" height=".529" x="-2.646" y="0" transform="rotate(-90)" style="fill:#241f31;fill-opacity:1;stroke:none;stroke-width:.529167;stroke-linecap:square;stroke-linejoin:round;paint-order:fill markers stroke"/><rect style="fill:#241f31;fill-opacity:1;stroke:none;stroke-width:.529167;stroke-linecap:square;stroke-linejoin:round;paint-order:fill markers stroke" id="rect886-5-2" width="1.058" height=".529" x="-4.233" y="0" transform="rotate(-90)"/><rect style="fill:#241f31;fill-opacity:1;stroke:none;stroke-width:.529167;stroke-linecap:square;stroke-linejoin:round;paint-order:fill markers stroke" id="rect886-6-9" width="1.058" height=".529" x="-2.646" y="5.292" transform="rotate(-90)"/><rect id="rect886-5-2-1" width="1.058" height=".529" x="-4.233" y="5.292" transform="rotate(-90)" style="fill:#241f31;fill-opacity:1;stroke:none;stroke-width:.529167;stroke-linecap:square;stroke-linejoin:round;paint-order:fill markers stroke"/></g><path id="path970" d="m 1.3229166,1.3229166 c 0,0 3.175,0.5291667 3.175,0.5291667 0,0 -1.3229166,2.9104167 -1.3229166,2.9104167 0,0 -1.8520834,-3.4395834 -1.8520834,-3.4395834 z" style="fill:#c0bfbc;stroke:#813d9c;stroke-width:.264583px;stroke-linecap:butt;stroke-linejoin:miter;stroke-opacity:1"/><rect id="rect947" width=".529" height=".529" x="1.058" y="1.058" style="fill:#e5a50a;fill-opacity:1;stroke:none;stroke-width:.529167;stroke-linecap:square;stroke-linejoin:round;paint-order:fill markers stroke"/><rect style="fill:#e5a50a;fill-opacity:1;stroke:none;stroke-width:.529167;stroke-linecap:square;stroke-linejoin:round;paint-order:fill markers stroke" id="rect947-2" width=".529" height=".529" x="2.91" y="4.498"/><rect style="fill:#e5a50a;fill-opacity:1;stroke:none;stroke-width:.529167;stroke-linecap:square;stroke-linejoin:round;paint-order:fill markers stroke" id="rect947-7" width=".529" height=".529" x="4.233" y="1.587"/></g></svg>