<svg xmlns="http://www.w3.org/2000/svg" xmlns:xlink="http://www.w3.org/1999/xlink" width="21cm" height="28cm" x="0" y="0" version="1.1" viewBox="0 0 420 560"><defs><linearGradient id="LG1"><stop offset="0" stop-color="#0f0"/><stop offset="1" stop-color="#00f"/></linearGradient><linearGradient id="LG2" x1="0" x2="1" y1="0" y2="1" xlink:href="#LG1"/><linearGradient id="LG3" x1="0" x2="1" y1="0" y2="0"><stop offset="0" stop-color="violet"/><stop offset=".2" stop-color="#00f" stop-opacity=".7"/><stop offset=".4" stop-color="#0ff"/><stop offset=".6" stop-color="#0f0" stop-opacity=".5"/><stop offset=".8" stop-color="#ff0"/><stop offset="1" stop-color="red" stop-opacity=".7"/></linearGradient><linearGradient id="LG4" x1="0" x2="300" y1="0" y2="0" gradientUnits="userSpaceOnUse" xlink:href="#LG3"/><radialGradient id="RG1"><stop offset="0" stop-color="#0f0"/><stop offset="1" stop-color="#00f"/></radialGradient><radialGradient id="RG2" cx="0" cy="0" r="1"><stop offset="0" stop-color="#0f0"/><stop offset="1" stop-color="#00f"/></radialGradient><radialGradient id="RG3" r=".8" fx="0" fy="0"><stop offset="0" stop-color="#0f0"/><stop offset="1" stop-color="#00f"/></radialGradient><radialGradient id="RG4" r=".6" fx=".25" fy=".25"><stop offset="0" stop-color="#0f0"/><stop offset="1" stop-color="#00f"/></radialGradient><radialGradient id="RG5" cx=".45" cy=".45" r=".4" fx=".3" fy=".3"><stop offset="0" stop-color="#fff"/><stop offset=".1" stop-color="#0f0"/><stop offset="1" stop-color="#00f"/></radialGradient></defs><rect id="r1" width="40" height="40" x="10" y="10" fill="url(#LG1)"/><rect id="r2" width="40" height="40" x="10" y="60" fill="url(#LG2)"/><rect id="r3" width="40" height="40" x="10" y="110" fill="url(#RG1)"/><rect id="r4" width="40" height="40" x="10" y="160" fill="url(#RG2)"/><rect id="r5" width="40" height="40" x="10" y="210" fill="url(#RG3)"/><rect id="r6" width="40" height="40" x="10" y="260" fill="url(#RG4)"/><rect id="r7" width="40" height="40" x="10" y="310" fill="url(#RG5)"/><rect id="r8" width="40" height="40" x="10" y="360" fill="url(#LG3)"/><rect id="r9" width="40" height="40" x="10" y="410" fill="url(#LG4)"/><circle id="c1" cx="80" cy="30" r="20" fill="url(#LG1)"/><circle id="c2" cx="80" cy="80" r="20" fill="url(#LG2)"/><circle id="c3" cx="80" cy="130" r="20" fill="url(#RG1)"/><circle id="c4" cx="80" cy="180" r="20" fill="url(#RG2)"/><circle id="c5" cx="80" cy="230" r="20" fill="url(#RG3)"/><circle id="c6" cx="80" cy="280" r="20" fill="url(#RG4)"/><circle id="c7" cx="80" cy="330" r="20" fill="url(#RG5)"/><circle id="c8" cx="80" cy="380" r="20" fill="url(#LG3)"/><circle id="c9" cx="80" cy="430" r="20" fill="url(#LG4)"/><polygon id="o1" fill="url(#LG1)" points="110 10 150 20 120 50"/><polygon id="o2" fill="url(#LG2)" points="110 60 150 70 120 100"/><polygon id="o3" fill="url(#RG1)" points="110 110 150 120 120 150"/><polygon id="o4" fill="url(#RG2)" points="110 160 150 170 120 200"/><polygon id="o5" fill="url(#RG3)" points="110 210 150 220 120 250"/><polygon id="o6" fill="url(#RG4)" points="110 260 150 270 120 300"/><polygon id="o7" fill="url(#RG5)" points="110 310 150 320 120 350"/><polygon id="o8" fill="url(#LG3)" points="110 360 150 370 120 400"/><polygon id="o9" fill="url(#LG4)" points="110 410 150 420 120 450"/><polygon id="o21" fill="url(#LG1)" points="180 10 194 50 160 26 200 26 166 50"/><polygon id="o22" fill="url(#LG2)" points="180 60 194 100 160 76 200 76 166 100"/><polygon id="o23" fill="url(#RG1)" points="180 110 194 150 160 126 200 126 166 150"/><polygon id="o24" fill="url(#RG2)" points="180 160 194 200 160 176 200 176 166 200"/><polygon id="o25" fill="url(#RG3)" points="180 210 194 250 160 226 200 226 166 250"/><polygon id="o26" fill="url(#RG4)" points="180 260 194 300 160 276 200 276 166 300"/><polygon id="o27" fill="url(#RG5)" points="180 310 194 350 160 326 200 326 166 350"/><polygon id="o28" fill="url(#LG3)" points="180 360 194 400 160 376 200 376 166 400"/><polygon id="o29" fill="url(#LG4)" points="180 410 194 450 160 426 200 426 166 450"/><path id="b1" fill="url(#LG1)" d="M210,10 l40,0 c0,40 -40,40 -40,0z"/><path id="b2" fill="url(#LG2)" d="M210,60 l40,0 c0,40 -40,40 -40,0z"/><path id="b3" fill="url(#RG1)" d="M210,110 l40,0 c0,40 -40,40 -40,0z"/><path id="b4" fill="url(#RG2)" d="M210,160 l40,0 c0,40 -40,40 -40,0z"/><path id="b5" fill="url(#RG3)" d="M210,210 l40,0 c0,40 -40,40 -40,0z"/><path id="b6" fill="url(#RG4)" d="M210,260 l40,0 c0,40 -40,40 -40,0z"/><path id="b7" fill="url(#RG5)" d="M210,310 l40,0 c0,40 -40,40 -40,0z"/><path id="b8" fill="url(#LG3)" d="M210,360 l40,0 c0,40 -40,40 -40,0z"/><path id="b9" fill="url(#LG4)" d="M210,410 l40,0 c0,40 -40,40 -40,0z"/><path id="p1" fill="url(#LG1)" d="M275,10 c20,0 20,40 0,40 c-20,0 -20,-40 0,-40m0,15 c5,0 5,10 0,10 c-5,0 -5,-10 0,-10z"/><path id="p2" fill="url(#LG2)" d="M275,60 c20,0 20,40 0,40 c-20,0 -20,-40 0,-40m0,15 c5,0 5,10 0,10 c-5,0 -5,-10 0,-10z"/><path id="p3" fill="url(#RG1)" d="M275,110 c20,0 20,40 0,40 c-20,0 -20,-40 0,-40m0,15 c5,0 5,10 0,10 c-5,0 -5,-10 0,-10z"/><path id="p4" fill="url(#RG2)" d="M275,160 c20,0 20,40 0,40 c-20,0 -20,-40 0,-40m0,15 c5,0 5,10 0,10 c-5,0 -5,-10 0,-10z"/><path id="p5" fill="url(#RG3)" d="M275,210 c20,0 20,40 0,40 c-20,0 -20,-40 0,-40m0,15 c5,0 5,10 0,10 c-5,0 -5,-10 0,-10z"/><path id="p6" fill="url(#RG4)" d="M275,260 c20,0 20,40 0,40 c-20,0 -20,-40 0,-40m0,15 c5,0 5,10 0,10 c-5,0 -5,-10 0,-10z"/><path id="p7" fill="url(#RG5)" d="M275,310 c20,0 20,40 0,40 c-20,0 -20,-40 0,-40m0,15 c5,0 5,10 0,10 c-5,0 -5,-10 0,-10z"/><path id="p8" fill="url(#LG3)" d="M275,360 c20,0 20,40 0,40 c-20,0 -20,-40 0,-40m0,15 c5,0 5,10 0,10 c-5,0 -5,-10 0,-10z"/><path id="p9" fill="url(#LG4)" d="M275,410 c20,0 20,40 0,40 c-20,0 -20,-40 0,-40m0,15 c5,0 5,10 0,10 c-5,0 -5,-10 0,-10z"/><text x="300" y="30" fill="#000">LG1</text><text x="300" y="80" fill="#000">LG2</text><text x="300" y="130" fill="#000">RG1</text><text x="300" y="180" fill="#000">RG2</text><text x="300" y="230" fill="#000">RG3</text><text x="300" y="280" fill="#000">RG4</text><text x="300" y="330" fill="#000">RG5</text><text x="300" y="380" fill="#000">LG3</text><text x="300" y="430" fill="#000">LG4</text></svg>