<svg xmlns="http://www.w3.org/2000/svg" xmlns:xlink="http://www.w3.org/1999/xlink" width="28cm" height="21cm" x="0" y="0" version="1.1" viewBox="0 0 560 420"><defs><path id="box" fill="red" stroke="none" d="M0,0 20,0 20,20 0,20 0,0z"/><path id="box-sm" fill="red" stroke="none" d="M0,0 10,0 10,10 0,10 0,0z"/><path id="box-lime" fill="#0f0" d="M0,0h20v20h-20z"/><path id="box-nofill" d="M0,0h20v20h-20z"/><style type="text/css">.blue{fill:#00f}#green{fill:#0f0}.red{fill:red}.blue#yellow{fill:#ff0}#gray{fill:gray}text{font-family:sans-serif;font-size:10pt}</style></defs><path id="box11" fill="#000" stroke="none" d="M20,20L40,20 40,40 20,40 20,20"/><path style="stroke:none,fill:#000000" id="box21" d="M60,20h20v20h-20z"/><path style="stroke:none;fill:#000" id="box31" d="M100,20h20v20h-20z"/><path id="box41" fill="#000" stroke="none" d="M140,20,160,20,160,40,140,40z"/><path id="box51" fill="#000" stroke="none" d="m180,20 20,0 0,20 -20,0 z"/><text x="220" y="40">Data and style</text><g style="stroke:none;fill:#00f" id="boxX2"><path id="box12" d="M20,20L40,20 40,40 20,40 20,20" transform="translate(0,40)"/><path id="box22" fill="#00f" d="M60,20h20v20h-20" transform="translate(0,40)"/><path id="box32" d="M100,20h20v20h-20z" transform="translate(0,40)"/><path id="box42" d="M140,20,160,20,160,40,140,40z" transform="translate(0,40)"/><path id="box52" d="m180,20 20,0 0,20 -20,0 z" transform="translate(0,40)"/><text x="220" y="80">Group style and translate</text></g><use x="20" y="100" xlink:href="#box"/><use id="box13" x="0" y="0" transform="translate(60,100)" xlink:href="#box"/><use id="box23" x="10" y="100" transform="translate(80,0)" xlink:href="#box1"/><use transform="matrix(2,0,0,2,100,100)" xlink:href="#box-sm"/><g id="scaled-use" transform="matrix(2,0,0,2,140,100)"><use id="box43" x="0" y="0" xlink:href="#box-sm"/><use id="box53" x="0" y="0" transform="translate(20,0)" xlink:href="#box-sm"/></g><text x="220" y="120" fill="red">Use and transform</text><use x="20" y="140" xlink:href="#box-lime"/><use x="60" y="140" fill="#ff0" xlink:href="#box-lime"/><g style="fill:#0ff"><use x="100" y="140" xlink:href="#box-lime"/></g><use x="140" y="140" xlink:href="#box-lime" style="fill:#f0f"/><use x="180" y="140" xlink:href="#box-lime" style="fill:gray"/><text x="220" y="160" fill="green">Use: lime(, yellow, cyan, magenta, gray?)</text><use x="20" y="180" xlink:href="#box-nofill"/><use x="60" y="180" fill="#ff0" xlink:href="#box-nofill"/><g style="fill:#0ff"><use x="100" y="180" xlink:href="#box-nofill"/></g><use x="140" y="180" xlink:href="#box-nofill" style="fill:#f0f"/><use x="180" y="180" xlink:href="#box-nofill" style="fill:gray"/><text x="220" y="200" fill="#000">Use: black, yellow, cyan, magenta, gray</text><g id="gray"><path d="M20,220h20v20h-20z" class="blue"/><path id="sthelse" d="M60,220h20v20h-20z" class="red"/><path id="green" d="M100,220h20v20h-20z"/><path id="yellow" d="M140,220h20v20h-20z" class="blue"/><path d="M180,220h20v20h-20z" class="blue#cyan"/><text x="220" y="240">CSS: blue, red, lime, yellow, gray (cyan?)</text></g><g><g transform="translate(20,260) scale(0.2,0.2)"><path id="border" fill="#00f" d="M0,0 100,0 100,100 0,100z"/><path id="mostly-hidden" fill="red" d="M30,30 70,30 70,70 30,70z"/><path id="with-hole" fill="#0f0" fill-opacity=".8" d="M20,20 80,20 80,80 20,80z M40,40 40,60 60,60 60,40 40,40z"/></g><g transform="translate(20,260) matrix(0.2,0,0,0.2,40,0)"><use xlink:href="#border"/><use xlink:href="#mostly-hidden"/><path id="maybe-with-hole" fill="#0f0" fill-opacity=".8" fill-rule="evenodd" d="M20,20 80,20 80,80 20,80z M40,40 60,40 60,60 40,60 40,40z"/></g><g transform="translate(20,260) matrix(0.2,0,0,0.2,80,0)"><use xlink:href="#border"/><use xlink:href="#mostly-hidden"/><path id="without-hole" fill="#0f0" fill-opacity=".8" d="M20,20 80,20 80,80 20,80z M40,40 60,40 60,60 40,60 40,40z"/></g><g><path fill="red" d="M40,40 40,60 60,60 60,40 40,40z" transform="translate(20,260) matrix(0.2,0,0,0.2,120,0)"/><path fill="#0f0" d="M20,20 80,20 80,80 20,80zM40,40 40,60 60,60 60,40 40,40z" transform="translate(20,260) matrix(0.2,0,0,0.2,120,0)"/><path fill="#00f" d="M0,0 100,0 100,100 0,100zM20,20 20,80 80,80 80,20z" transform="translate(20,260) matrix(0.2,0,0,0.2,120,0)"/></g><g><path fill="#00f" d="M0,0 100,0 100,100 0,100zM20,20 20,80 80,80 80,20z" transform="translate(20,260) matrix(0.2,0,0,0.2,160,0)"/><path fill="#0f0" d="M20,20 80,20 80,80 20,80zM40,40 40,60 60,60 60,40 40,40z" transform="translate(20,260) matrix(0.2,0,0,0.2,160,0)"/><path fill="red" d="M40,40 40,60 60,60 60,40 40,40z" transform="translate(20,260) matrix(0.2,0,0,0.2,160,0)"/></g><text x="200" y="20" fill="#00f" transform="translate(20,260)">Hole: counter-clockwise, evenodd, none(zero?), more...</text></g><g><path fill="#000" stroke="none" d="M0,0 h20 v20 h-20 v-20zM5,5 v10 h10 v-10z" transform="translate(20,300)"/><path fill="#000" fill-rule="evenodd" stroke="red" d="M45,5 h10 v10 h-10 v-10 m-5,-5 h20 v20 h-20z" transform="translate(20,300)"/><path fill="#000" stroke="red" d="M85,5 h10 v10 h-10 v-10 m-5,-5 v20 h20 v-20z" transform="translate(20,300)"/><path fill="#000" stroke="red" d="M125,5 v10 h10 v-10 h-10 m-5,-5 h20 v20 h-20z" transform="translate(20,300)"/><text x="200" y="20" fill="#000" transform="translate(20,300)">Holes first: reference, evenodd, outside: ccw, inner: ccw</text></g><g><path d="M0,0 h20 v20 h-20 m5,-5 h10 v-10 h-10 z" transform="translate(20,340)"/><path fill="#000" stroke="red" d="M40,0 v20 h20 v-20" transform="translate(20,340)"/><path fill="#000" stroke="red" d="M80,0 c7,0 13,0 20,0 c0,7 0,13 0,20 c-7,0 -13,0 -20,0" transform="translate(20,340)"/><text x="200" y="20" fill="#000" transform="translate(20,340)">Implicit close: hole, top, left, ...</text></g></svg>