<svg xmlns="http://www.w3.org/2000/svg" xmlns:xlink="http://www.w3.org/1999/xlink" width="20cm" height="16cm" viewBox="40 20 400 320"><g id="Background"><g><rect style="fill:maroon;fill-opacity:1" width="80" height="80" x="40" y="20"/><rect style="fill:none;stroke-opacity:1;stroke-width:2.35099e-037;stroke:maroon" width="80" height="80" x="40" y="20"/><text style="fill:#fff;fill-opacity:1;text-anchor:middle;font-family:sans-serif;font-style:normal;font-weight:400" x="80" y="55.9" font-size="12.8"><tspan x="80" y="55.9">maroon</tspan> <tspan x="80" y="71.9">#800000</tspan></text></g><g><rect style="fill:red;fill-opacity:1" width="80" height="80" x="120" y="20"/><rect style="fill:none;stroke-opacity:1;stroke-width:2.35099e-037;stroke:red" width="80" height="80" x="120" y="20"/><text style="fill:#fff;fill-opacity:1;text-anchor:middle;font-family:sans-serif;font-style:normal;font-weight:400" x="160" y="55.9" font-size="12.8"><tspan x="160" y="55.9">red</tspan> <tspan x="160" y="71.9">#FF0000</tspan></text></g><g><rect style="fill:orange;fill-opacity:1" width="80" height="80" x="200" y="20"/><rect style="fill:none;stroke-opacity:1;stroke-width:2.35099e-037;stroke:orange" width="80" height="80" x="200" y="20"/><text style="fill:#000;fill-opacity:1;text-anchor:middle;font-family:sans-serif;font-style:normal;font-weight:400" x="240" y="55.9" font-size="12.8"><tspan x="240" y="55.9">orange</tspan> <tspan x="240" y="71.9">#FFA500</tspan></text></g><g><rect style="fill:#ff0;fill-opacity:1" width="80" height="80" x="280" y="20"/><rect style="fill:none;stroke-opacity:1;stroke-width:2.35099e-037;stroke:#ff0" width="80" height="80" x="280" y="20"/><text style="fill:#000;fill-opacity:1;text-anchor:middle;font-family:sans-serif;font-style:normal;font-weight:400" x="320" y="55.9" font-size="12.8"><tspan x="320" y="55.9">yellow</tspan> <tspan x="320" y="71.9">#FFFF00</tspan></text></g><g><rect style="fill:olive;fill-opacity:1" width="80" height="80" x="360" y="20"/><rect style="fill:none;stroke-opacity:1;stroke-width:2.35099e-037;stroke:olive" width="80" height="80" x="360" y="20"/><text style="fill:#fff;fill-opacity:1;text-anchor:middle;font-family:sans-serif;font-style:normal;font-weight:400" x="400" y="55.9" font-size="12.8"><tspan x="400" y="55.9">olive</tspan> <tspan x="400" y="71.9">#808000</tspan></text></g><g><rect style="fill:purple;fill-opacity:1" width="80" height="80" x="40" y="100"/><rect style="fill:none;stroke-opacity:1;stroke-width:2.35099e-037;stroke:purple" width="80" height="80" x="40" y="100"/><text style="fill:#fff;fill-opacity:1;text-anchor:middle;font-family:sans-serif;font-style:normal;font-weight:400" x="80" y="135.9" font-size="12.8"><tspan x="80" y="135.9">purple</tspan> <tspan x="80" y="151.9">#800080</tspan></text></g><g><rect style="fill:#f0f;fill-opacity:1" width="80" height="80" x="120" y="100"/><rect style="fill:none;stroke-opacity:1;stroke-width:2.35099e-037;stroke:#f0f" width="80" height="80" x="120" y="100"/><text style="fill:#000;fill-opacity:1;text-anchor:middle;font-family:sans-serif;font-style:normal;font-weight:400" x="160" y="135.9" font-size="12.8"><tspan x="160" y="135.9">fuchsia</tspan> <tspan x="160" y="151.9">#FF00FF</tspan></text></g><g><rect style="fill:#fff;fill-opacity:1" width="80" height="80" x="200" y="100"/><rect style="fill:none;stroke-opacity:1;stroke-width:2.35099e-037;stroke:#fff" width="80" height="80" x="200" y="100"/><text style="fill:#000;fill-opacity:1;text-anchor:middle;font-family:sans-serif;font-style:normal;font-weight:400" x="240" y="135.9" font-size="12.8"><tspan x="240" y="135.9">white</tspan> <tspan x="240" y="151.9">#FFFFFF</tspan></text></g><g><rect style="fill:#0f0;fill-opacity:1" width="80" height="80" x="280" y="100"/><rect style="fill:none;stroke-opacity:1;stroke-width:2.35099e-037;stroke:#0f0" width="80" height="80" x="280" y="100"/><text style="fill:#000;fill-opacity:1;text-anchor:middle;font-family:sans-serif;font-style:normal;font-weight:400" x="320" y="135.9" font-size="12.8"><tspan x="320" y="135.9">lime</tspan> <tspan x="320" y="151.9">#00FF00</tspan></text></g><g><rect style="fill:green;fill-opacity:1" width="80" height="80" x="360" y="100"/><rect style="fill:none;stroke-opacity:1;stroke-width:2.35099e-037;stroke:green" width="80" height="80" x="360" y="100"/><text style="fill:#fff;fill-opacity:1;text-anchor:middle;font-family:sans-serif;font-style:normal;font-weight:400" x="400" y="135.9" font-size="12.8"><tspan x="400" y="135.9">green</tspan> <tspan x="400" y="151.9">#008000</tspan></text></g><g><rect style="fill:navy;fill-opacity:1" width="80" height="80" x="80" y="180"/><rect style="fill:none;stroke-opacity:1;stroke-width:2.35099e-037;stroke:navy" width="80" height="80" x="80" y="180"/><text style="fill:#fff;fill-opacity:1;text-anchor:middle;font-family:sans-serif;font-style:normal;font-weight:400" x="120" y="215.9" font-size="12.8"><tspan x="120" y="215.9">navy</tspan> <tspan x="120" y="231.9">#000080</tspan></text></g><g><rect style="fill:#00f;fill-opacity:1" width="80" height="80" x="160" y="180"/><rect style="fill:none;stroke-opacity:1;stroke-width:2.35099e-037;stroke:#00f" width="80" height="80" x="160" y="180"/><text style="fill:#fff;fill-opacity:1;text-anchor:middle;font-family:sans-serif;font-style:normal;font-weight:400" x="200" y="215.9" font-size="12.8"><tspan x="200" y="215.9">blue</tspan> <tspan x="200" y="231.9">#00FF00</tspan></text></g><g><rect style="fill:#0ff;fill-opacity:1" width="80" height="80" x="240" y="180"/><rect style="fill:none;stroke-opacity:1;stroke-width:2.35099e-037;stroke:#0ff" width="80" height="80" x="240" y="180"/><text style="fill:#000;fill-opacity:1;text-anchor:middle;font-family:sans-serif;font-style:normal;font-weight:400" x="280" y="215.9" font-size="12.8"><tspan x="280" y="215.9">aqua</tspan> <tspan x="280" y="231.9">#00FFFF</tspan></text></g><g><rect style="fill:teal;fill-opacity:1" width="80" height="80" x="320" y="180"/><rect style="fill:none;stroke-opacity:1;stroke-width:2.35099e-037;stroke:teal" width="80" height="80" x="320" y="180"/><text style="fill:#fff;fill-opacity:1;text-anchor:middle;font-family:sans-serif;font-style:normal;font-weight:400" x="360" y="215.9" font-size="12.8"><tspan x="360" y="215.9">teal</tspan> <tspan x="360" y="231.9">#008080</tspan></text></g><g><rect style="fill:#000;fill-opacity:1" width="80" height="80" x="120" y="260"/><rect style="fill:none;stroke-opacity:1;stroke-width:2.35099e-037;stroke:#000" width="80" height="80" x="120" y="260"/><text style="fill:#fff;fill-opacity:1;text-anchor:middle;font-family:sans-serif;font-style:normal;font-weight:400" x="160" y="295.9" font-size="12.8"><tspan x="160" y="295.9">black</tspan> <tspan x="160" y="311.9">#000000</tspan></text></g><g><rect style="fill:silver;fill-opacity:1" width="80" height="80" x="200" y="260"/><rect style="fill:none;stroke-opacity:1;stroke-width:2.35099e-037;stroke:silver" width="80" height="80" x="200" y="260"/><text style="fill:#000;fill-opacity:1;text-anchor:middle;font-family:sans-serif;font-style:normal;font-weight:400" x="240" y="295.9" font-size="12.8"><tspan x="240" y="295.9">silver</tspan> <tspan x="240" y="311.9">#C0C0C0</tspan></text></g><g><rect style="fill:gray;fill-opacity:1" width="80" height="80" x="280" y="260"/><rect style="fill:none;stroke-opacity:1;stroke-width:2.35099e-037;stroke:gray" width="80" height="80" x="280" y="260"/><text style="fill:#fff;fill-opacity:1;text-anchor:middle;font-family:sans-serif;font-style:normal;font-weight:400" x="320" y="295.9" font-size="12.8"><tspan x="320" y="295.9">gray</tspan> <tspan x="320" y="311.9">#808080</tspan></text></g></g></svg>