<svg xmlns="http://www.w3.org/2000/svg" xmlns:xlink="http://www.w3.org/1999/xlink" width="128" height="128" version="1.1" viewBox="0 0 128 128"><defs><linearGradient id="linear0" x1="27.284" x2="27.415" y1="30.562" y2="11.752" gradientTransform="matrix(1.941913,0,0,2.168904,11.762471,-63.487984)" gradientUnits="userSpaceOnUse"><stop offset="0" style="stop-color:#e5a50a;stop-opacity:1"/><stop offset="1" style="stop-color:#f6d32d;stop-opacity:1"/></linearGradient><linearGradient id="linear1" x1="65" x2="65" y1="13" y2="-47" gradientUnits="userSpaceOnUse"><stop offset="0" style="stop-color:#c64600;stop-opacity:1"/><stop offset="1" style="stop-color:#ff7800;stop-opacity:1"/></linearGradient><linearGradient id="linear2" x1="120" x2="10" y1="-12" y2="-12" gradientUnits="userSpaceOnUse"><stop offset="0" style="stop-color:#9a9996;stop-opacity:1"/><stop offset="1" style="stop-color:#c0bfbc;stop-opacity:.92437"/></linearGradient><linearGradient id="linear3" x1="120" x2="10" y1="-17" y2="-17" gradientUnits="userSpaceOnUse"><stop offset="0" style="stop-color:#000;stop-opacity:1"/><stop offset="1" style="stop-color:#3d3846;stop-opacity:1"/></linearGradient><linearGradient id="linear4" x1="30" x2="30" y1="33" y2="-52" gradientUnits="userSpaceOnUse"><stop offset="0" style="stop-color:#9a9996;stop-opacity:1"/><stop offset="1" style="stop-color:#c0bfbc;stop-opacity:1"/></linearGradient><linearGradient id="linear5" x1="30" x2="30" y1="33" y2="-44" gradientUnits="userSpaceOnUse"><stop offset="0" style="stop-color:#000;stop-opacity:1"/><stop offset="1" style="stop-color:#3d3846;stop-opacity:1"/></linearGradient><linearGradient id="linear6" x1="9.538" x2="9.538" y1="14.221" y2="5.799" gradientTransform="matrix(2.600007,0,0,3.324355,5.200012,-7.276607)" gradientUnits="userSpaceOnUse"><stop offset="0" style="stop-color:#26a269;stop-opacity:1"/><stop offset="1" style="stop-color:#33d17a;stop-opacity:1"/></linearGradient><linearGradient id="linear7" x1="9.538" x2="9.538" y1="12.116" y2="7.904" gradientTransform="matrix(2.600007,0,0,3.324355,5.200012,-7.276607)" gradientUnits="userSpaceOnUse"><stop offset="0" style="stop-color:#26a269;stop-opacity:1"/><stop offset="1" style="stop-color:#33d17a;stop-opacity:1"/></linearGradient></defs><g id="surface426602"><path style="fill-rule:nonzero;fill:url(#linear0);stroke-width:1.997971;stroke-linecap:butt;stroke-linejoin:miter;stroke:url(#linear1);stroke-miterlimit:4" d="M 65 -39 L 44 5 L 86 5 Z M 65 -23 L 75 -2 L 55 -2 Z M 65 -23" transform="matrix(1,0,0,1,0,80)"/><path style="fill-rule:nonzero;fill:url(#linear2);stroke-width:2;stroke-linecap:butt;stroke-linejoin:miter;stroke:url(#linear3);stroke-miterlimit:4" d="M 8.035156 -57.300781 L 8.035156 -46.898438 L 68.183594 -46.898438 C 80.714844 -46.867188 91.96875 -42.929688 99.882812 -36.90625 C 107.835938 -30.855469 112.351562 -22.960938 112.351562 -14.398438 C 112.351562 -5.839844 107.835938 2.054688 99.882812 8.105469 C 91.933594 14.15625 80.617188 18.101562 68.019531 18.101562 L 7.875 18.101562 L 7.875 28.5 L 68.019531 28.5 C 82.773438 28.5 96.257812 23.992188 106.242188 16.394531 C 116.226562 8.796875 122.785156 -2.152344 122.785156 -14.398438 C 122.785156 -26.648438 116.226562 -37.597656 106.242188 -45.195312 C 96.292969 -52.761719 82.871094 -57.265625 68.183594 -57.300781 Z M 8.035156 -57.300781" transform="matrix(1,0,0,1,0,80)"/><path style="fill-rule:nonzero;fill:url(#linear4);stroke-width:2;stroke-linecap:butt;stroke-linejoin:miter;stroke:url(#linear5);stroke-miterlimit:4" d="M 25 -42 L 25 31.890625 L 21.515625 31.890625 L 30 41 L 38.484375 31.890625 L 35 31.890625 L 35 -42 Z M 25 -42" transform="matrix(1,0,0,1,0,80)"/><path style="stroke:none;fill-rule:nonzero;fill:url(#linear6)" d="M 18 12 L 42 12 L 42 40 L 18 40 Z M 18 12"/><path style="stroke:none;fill-rule:nonzero;fill:#8ff0a4;fill-opacity:.911765" d="M 20 14.332031 L 40 14.332031 L 40 37.667969 L 20 37.667969 Z M 20 14.332031"/><path style="stroke:none;fill-rule:nonzero;fill:url(#linear7)" d="M 22 16.667969 L 38 16.667969 L 38 35.332031 L 22 35.332031 Z M 22 16.667969"/></g></svg>